<svg fill="none" height="24" viewBox="0 0 24 24" width="24" xmlns="http://www.w3.org/2000/svg"><g fill="#0f0f0f"><path clip-rule="evenodd" d="m2.95688 12.6018c.00937.1254.01897.2311.02735.3144l-.00506.0027c-1.01126.5471-1.97917 1.5161-1.97917 3.0811v3c0 1.565.96791 2.534 1.97917 3.0811.98356.532 2.13219.748 2.90505.8412 1.21172.1459 2.11578-.8409 2.11578-1.9223v-7c0-1.0814-.90406-2.0682-2.11578-1.9223-.27605.0333-.60004.0822-.94733.1557-.0146-.2549-.02564-.5759-.02285-.9446.00652-.8613.08853-1.95661.36334-3.06602l-1.60424-1.60424c-.07134.19994-.13602.39966-.19465.59811-.4415 1.49431-.55616 2.96955-.56439 4.05705-.00415.5471.01862 1.0045.04278 1.3281zm.97388 2.0763c.61503-.3327 1.4067-.5104 2.06924-.599v6.8418c-.66254-.0886-1.45421-.2663-2.06924-.599-.62602-.3386-.93076-.7465-.93076-1.3219v-3c0-.5754.30474-.9833.93076-1.3219z" fill-rule="evenodd"/><path d="m6.03107 3.01206 1.41809 1.41809c.98871-.83074 2.42172-1.43015 4.55084-1.43015 2.168 0 3.6143.62151 4.6046 1.47591 1.0063.86817 1.6279 2.05183 1.9989 3.30743.371 1.2557.4751 2.53046.4825 3.50546.0028.3687-.0083.6897-.0229.9446-.3473-.0735-.6713-.1224-.9473-.1557-.8851-.1066-1.606.3912-1.9304 1.0887l1.8146 1.8146v-.9019c.6625.0886 1.4542.2663 2.0692.599.6261.3386.9308.7465.9308 1.3219v1.981l1.8905 1.8905c.0705-.2674.1095-.5575.1095-.8715v-3c0-1.565-.9679-2.534-1.9792-3.0811l-.005-.0027c.0084-.0833.018-.189.0273-.3144.0242-.3236.047-.781.0428-1.3281-.0082-1.0875-.1229-2.56274-.5644-4.05705-.4415-1.49439-1.2261-3.06073-2.6105-4.25506-1.4003-1.2081-3.329-1.96159-5.911-1.96159-2.58198 0-4.51074.75349-5.91104 1.96159-.01942.01675-.03871.03358-.05789.05047z"/><path d="m19.6713 22.6167-3.6713-3.6713v2.0546c0 1.0814.9041 2.0682 2.1158 1.9223.4324-.0521.9825-.1427 1.5555-.3056z"/><path d="m2.00788 3.42207c-.39052-.39053-.39052-1.02369.00001-1.41422.39052-.39052 1.02368-.39052 1.41421 0l18.5783 18.57835c.3906.3905.3906 1.0237 0 1.4142-.3905.3905-1.0237.3905-1.4142 0z"/></g></svg>